<svg xmlns="http://www.w3.org/2000/svg" xmlns:xlink="http://www.w3.org/1999/xlink" width="48" height="48"><defs><rect id="A" width="48" height="48" rx="16"/><path id="B" d="M0 0h48v48H0z"/></defs><g fill="none" fill-rule="evenodd"><mask id="C" fill="#fff"><use xlink:href="#A"/></mask><g mask="url(#C)"><mask id="D" fill="#fff"><use xlink:href="#B"/></mask><g mask="url(#D)" fill-rule="nonzero" fill="#577195"><path d="M-35-7H65v67H-35z"/></g></g><path d="M24.5 25.15V35.5m0 0l3.977-4.025M24.5 35.5l-3.977-4.025m13.068-1.027C35.288 29.776 37 28.242 37 25.15c0-4.6-3.788-5.75-5.682-5.75 0-2.3 0-6.9-6.818-6.9s-6.818 4.6-6.818 6.9C15.788 19.4 12 20.55 12 25.15c0 3.092 1.711 4.626 3.409 5.298" stroke="#fff" stroke-width="2" stroke-linecap="round" stroke-linejoin="round"/></g></svg>
